<svg version="1.1" id="Layer_1" xmlns="http://www.w3.org/2000/svg" xmlns:xlink="http://www.w3.org/1999/xlink" x="0px" y="0px"
	 width="100%" viewBox="0 0 400 300" enable-background="new 0 0 400 300" xml:space="preserve">
<path fill="#FFFFFF" opacity="1.000000" stroke="none" 
	d="
M374.000000,301.000000 
	C249.333359,301.000000 125.166710,301.000000 1.000050,301.000000 
	C1.000033,201.000046 1.000033,101.000084 1.000017,1.000090 
	C134.333267,1.000060 267.666534,1.000060 400.999878,1.000030 
	C400.999908,100.999916 400.999908,200.999832 400.999939,300.999878 
	C392.166656,301.000000 383.333344,301.000000 374.000000,301.000000 
M127.091965,129.042480 
	C125.721672,129.086334 124.351387,129.130203 122.053696,129.051575 
	C116.720467,129.053131 111.385887,128.979172 106.054314,129.073792 
	C97.875237,129.218964 92.569321,134.295380 92.307823,142.451187 
	C92.104988,148.777695 92.071388,155.124176 92.326195,161.447128 
	C92.638817,169.204666 97.688805,174.042740 105.439560,174.316269 
	C108.932228,174.439529 112.434731,174.284256 116.555656,174.678360 
	C118.337875,174.677536 120.120087,174.676712 122.144699,175.348785 
	C125.733574,180.009796 129.322449,184.670807 133.326080,189.870468 
	C137.635071,184.190018 141.338150,179.308334 145.845047,174.335861 
	C154.008804,173.067429 157.973114,168.677719 158.058441,160.652008 
	C158.123978,154.489288 158.168167,148.323166 158.040161,142.162354 
	C157.882462,134.572266 152.729401,129.388870 145.143158,129.086533 
	C142.821854,128.993988 140.488678,129.198822 137.250687,129.042328 
	C134.136688,129.076324 131.022690,129.110321 127.091965,129.042480 
M216.720596,142.926239 
	C216.720596,140.354797 216.720596,137.783356 216.720596,134.903351 
	C214.355072,135.048355 212.791412,135.144196 211.266815,135.237656 
	C211.266815,145.511612 211.266815,155.386871 211.266815,165.389786 
	C213.869904,165.207962 216.432358,164.314362 218.406723,165.034103 
	C223.072540,166.734940 226.888397,166.039154 230.161667,162.511215 
	C233.614365,158.789902 234.035294,152.569870 231.199615,148.160141 
	C228.572403,144.074631 224.862030,142.582703 220.064789,143.779907 
	C219.035889,144.036667 217.880768,143.787598 216.720596,142.926239 
M305.774139,143.802673 
	C300.209442,141.937851 298.818329,148.179382 294.283752,150.357925 
	C294.283752,144.735748 294.283752,140.012527 294.283752,135.148544 
	C292.089783,135.148544 290.467102,135.148544 288.573822,135.148544 
	C288.573822,145.233490 288.573822,155.136993 288.573822,165.256134 
	C290.509766,165.256134 292.194824,165.256134 293.476898,165.256134 
	C294.221710,162.831589 294.826721,160.862274 295.648407,158.187576 
	C299.364227,162.016846 300.738068,167.955063 307.407410,164.926300 
	C304.781677,161.252274 302.224701,157.674454 299.612274,154.019028 
	C302.169220,151.060577 304.488251,148.460739 306.670746,145.750931 
	C306.956818,145.395752 306.542969,144.476868 305.774139,143.802673 
M207.601807,152.189667 
	C206.167313,146.679031 202.491241,143.654968 196.925980,143.401230 
	C192.055191,143.179169 188.162476,145.356033 186.146637,149.953201 
	C184.171524,154.457504 184.862854,158.763885 188.175247,162.452347 
	C191.315018,165.948578 196.560669,167.007828 200.990356,165.044922 
	C206.203171,162.735016 208.221924,158.521439 207.601807,152.189667 
M256.832611,148.640137 
	C260.116791,148.803146 264.348297,146.199554 266.826843,151.789963 
	C263.668518,151.938171 261.483002,151.795654 259.399933,152.191910 
	C255.614151,152.912033 252.886124,155.021729 253.123428,159.241516 
	C253.354050,163.342239 256.292023,166.309311 259.898560,165.669128 
	C264.810181,164.797333 269.619141,164.748413 274.878418,165.438232 
	C274.785217,163.442429 275.063782,161.189926 274.612549,161.032745 
	C270.701599,159.670471 272.108795,156.496735 272.073517,153.994110 
	C271.943542,144.773544 268.503510,142.102524 259.221313,143.762833 
	C256.303680,144.284714 255.587387,145.521790 256.832611,148.640137 
M242.508209,136.176971 
	C238.758789,136.176971 235.009369,136.176971 230.902679,136.176971 
	C231.085693,138.534195 231.206863,140.094940 231.332626,141.714813 
	C234.392563,141.850922 236.991470,141.966522 240.056473,142.102844 
	C240.056473,149.980850 240.056473,157.558212 240.056473,165.249527 
	C242.270050,165.249527 243.980408,165.249527 246.166321,165.249527 
	C246.166321,157.291046 246.166321,149.701004 246.166321,141.742004 
	C249.252533,141.742004 251.860779,141.742004 254.653809,141.742004 
	C254.653809,139.784348 254.653809,138.221497 254.653809,136.177078 
	C250.752228,136.177078 247.120865,136.177078 242.508209,136.176971 
M182.395325,157.170990 
	C182.395325,150.273178 182.395325,143.375366 182.395325,136.585480 
	C178.939438,136.585480 176.215744,136.585480 173.000046,136.585480 
	C173.330292,138.278839 173.230988,140.348846 173.868118,140.607956 
	C177.364975,142.030045 176.357224,144.904770 176.425858,147.396790 
	C176.521683,150.876999 176.857529,154.426544 176.319550,157.824326 
	C175.886673,160.558441 174.906265,163.670074 173.092880,165.606857 
	C170.689560,168.173691 171.591736,169.386353 173.495468,171.049393 
	C179.437195,168.589981 183.035126,164.767776 182.395325,157.170990 
M278.138580,159.329376 
	C278.138580,161.261581 278.138580,163.193802 278.138580,165.192413 
	C280.443237,165.192413 282.134399,165.192413 283.676239,165.192413 
	C283.676239,154.893906 283.676239,145.012268 283.676239,134.915192 
	C281.722870,135.035919 280.127808,135.134506 278.138611,135.257446 
	C278.138611,143.162567 278.138611,150.765503 278.138580,159.329376 
z"/>
<path fill="#0390DC" opacity="1.000000" stroke="none" 
	d="
M115.932770,174.255356 
	C112.434731,174.284256 108.932228,174.439529 105.439560,174.316269 
	C97.688805,174.042740 92.638817,169.204666 92.326195,161.447128 
	C92.071388,155.124176 92.104988,148.777695 92.307823,142.451187 
	C92.569321,134.295380 97.875237,129.218964 106.054314,129.073792 
	C111.385887,128.979172 116.720467,129.053131 122.531219,129.495667 
	C125.632095,134.399902 124.985939,138.915604 123.692192,143.666000 
	C120.928398,153.814148 118.499100,164.053421 115.932770,174.255356 
z"/>
<path fill="#61C6FE" opacity="1.000000" stroke="none" 
	d="
M145.041214,174.426651 
	C141.338150,179.308334 137.635071,184.190018 133.326080,189.870468 
	C129.322449,184.670807 125.733574,180.009796 121.989273,174.615570 
	C124.262115,163.767471 126.440224,153.583099 129.222076,143.566391 
	C130.656555,138.401184 131.428696,133.680099 127.908699,129.144318 
	C131.022690,129.110321 134.136688,129.076324 137.674988,129.531448 
	C135.307220,134.077927 135.883316,138.303131 137.074188,142.772018 
	C139.875580,153.284729 142.402954,163.870468 145.041214,174.426651 
z"/>
<path fill="#0290DD" opacity="1.000000" stroke="none" 
	d="
M145.443130,174.381256 
	C142.402954,163.870468 139.875580,153.284729 137.074188,142.772018 
	C135.883316,138.303131 135.307220,134.077927 138.130112,129.644028 
	C140.488678,129.198822 142.821854,128.993988 145.143158,129.086533 
	C152.729401,129.388870 157.882462,134.572266 158.040161,142.162354 
	C158.168167,148.323166 158.123978,154.489288 158.058441,160.652008 
	C157.973114,168.677719 154.008804,173.067429 145.443130,174.381256 
z"/>
<path fill="#0C94DE" opacity="1.000000" stroke="none" 
	d="
M216.752197,143.348892 
	C217.880768,143.787598 219.035889,144.036667 220.064789,143.779907 
	C224.862030,142.582703 228.572403,144.074631 231.199615,148.160141 
	C234.035294,152.569870 233.614365,158.789902 230.161667,162.511215 
	C226.888397,166.039154 223.072540,166.734940 218.406723,165.034103 
	C216.432358,164.314362 213.869904,165.207962 211.266815,165.389786 
	C211.266815,155.386871 211.266815,145.511612 211.266815,135.237656 
	C212.791412,135.144196 214.355072,135.048355 216.720596,134.903351 
	C216.720596,137.783356 216.720596,140.354797 216.752197,143.348892 
M225.205399,159.612244 
	C225.862228,157.987656 226.944290,156.399994 227.089157,154.730988 
	C227.410416,151.029755 225.579498,148.694733 221.683136,148.576019 
	C218.181946,148.469345 215.727448,151.453476 216.020142,155.218002 
	C216.367264,159.682343 219.558243,161.495422 225.205399,159.612244 
z"/>
<path fill="#1397DF" opacity="1.000000" stroke="none" 
	d="
M306.113708,143.810867 
	C306.542969,144.476868 306.956818,145.395752 306.670746,145.750931 
	C304.488251,148.460739 302.169220,151.060577 299.612274,154.019028 
	C302.224701,157.674454 304.781677,161.252274 307.407410,164.926300 
	C300.738068,167.955063 299.364227,162.016846 295.648407,158.187576 
	C294.826721,160.862274 294.221710,162.831589 293.476898,165.256134 
	C292.194824,165.256134 290.509766,165.256134 288.573822,165.256134 
	C288.573822,155.136993 288.573822,145.233490 288.573822,135.148544 
	C290.467102,135.148544 292.089783,135.148544 294.283752,135.148544 
	C294.283752,140.012527 294.283752,144.735748 294.283752,150.357925 
	C298.818329,148.179382 300.209442,141.937851 306.113708,143.810867 
M294.185730,151.157898 
	C294.553619,151.020370 294.921539,150.882843 295.289429,150.745331 
	C294.938263,150.640320 294.587097,150.535309 294.185730,151.157898 
z"/>
<path fill="#0D95DE" opacity="1.000000" stroke="none" 
	d="
M207.686356,152.582047 
	C208.221924,158.521439 206.203171,162.735016 200.990356,165.044922 
	C196.560669,167.007828 191.315018,165.948578 188.175247,162.452347 
	C184.862854,158.763885 184.171524,154.457504 186.146637,149.953201 
	C188.162476,145.356033 192.055191,143.179169 196.925980,143.401230 
	C202.491241,143.654968 206.167313,146.679031 207.686356,152.582047 
M194.855743,148.828506 
	C190.982330,151.391251 189.816330,155.035934 192.004776,158.264450 
	C193.835861,160.965790 196.425400,161.897781 199.232346,159.961899 
	C202.435013,157.753113 203.037598,154.395554 200.950546,151.318222 
	C199.981049,149.888718 197.477203,149.499817 194.855743,148.828506 
z"/>
<path fill="#0D95DE" opacity="1.000000" stroke="none" 
	d="
M256.534729,148.371399 
	C255.587387,145.521790 256.303680,144.284714 259.221313,143.762833 
	C268.503510,142.102524 271.943542,144.773544 272.073517,153.994110 
	C272.108795,156.496735 270.701599,159.670471 274.612549,161.032745 
	C275.063782,161.189926 274.785217,163.442429 274.878418,165.438232 
	C269.619141,164.748413 264.810181,164.797333 259.898560,165.669128 
	C256.292023,166.309311 253.354050,163.342239 253.123428,159.241516 
	C252.886124,155.021729 255.614151,152.912033 259.399933,152.191910 
	C261.483002,151.795654 263.668518,151.938171 266.826843,151.789963 
	C264.348297,146.199554 260.116791,148.803146 256.534729,148.371399 
M265.651367,160.035675 
	C266.042084,158.873932 266.432770,157.712204 267.025024,155.951202 
	C264.518005,155.951202 262.650665,155.637436 260.975098,156.068695 
	C259.967590,156.328018 258.404663,158.042801 258.591949,158.586456 
	C258.994934,159.756027 260.222351,161.063324 261.387482,161.423111 
	C262.432983,161.745941 263.846649,160.876389 265.651367,160.035675 
z"/>
<path fill="#1397DF" opacity="1.000000" stroke="none" 
	d="
M242.998856,136.177032 
	C247.120865,136.177078 250.752228,136.177078 254.653809,136.177078 
	C254.653809,138.221497 254.653809,139.784348 254.653809,141.742004 
	C251.860779,141.742004 249.252533,141.742004 246.166321,141.742004 
	C246.166321,149.701004 246.166321,157.291046 246.166321,165.249527 
	C243.980408,165.249527 242.270050,165.249527 240.056473,165.249527 
	C240.056473,157.558212 240.056473,149.980850 240.056473,142.102844 
	C236.991470,141.966522 234.392563,141.850922 231.332626,141.714813 
	C231.206863,140.094940 231.085693,138.534195 230.902679,136.176971 
	C235.009369,136.176971 238.758789,136.176971 242.998856,136.177032 
z"/>
<path fill="#0993DD" opacity="1.000000" stroke="none" 
	d="
M182.394836,157.625214 
	C183.035126,164.767776 179.437195,168.589981 173.495468,171.049393 
	C171.591736,169.386353 170.689560,168.173691 173.092880,165.606857 
	C174.906265,163.670074 175.886673,160.558441 176.319550,157.824326 
	C176.857529,154.426544 176.521683,150.876999 176.425858,147.396790 
	C176.357224,144.904770 177.364975,142.030045 173.868118,140.607956 
	C173.230988,140.348846 173.330292,138.278839 173.000046,136.585480 
	C176.215744,136.585480 178.939438,136.585480 182.395325,136.585480 
	C182.395325,143.375366 182.395325,150.273178 182.394836,157.625214 
z"/>
<path fill="#027ABC" opacity="1.000000" stroke="none" 
	d="
M127.500336,129.093384 
	C131.428696,133.680099 130.656555,138.401184 129.222076,143.566391 
	C126.440224,153.583099 124.262115,163.767471 121.868073,174.279129 
	C120.120087,174.676712 118.337875,174.677536 116.244217,174.466858 
	C118.499100,164.053421 120.928398,153.814148 123.692192,143.666000 
	C124.985939,138.915604 125.632095,134.399902 122.994919,129.556915 
	C124.351387,129.130203 125.721672,129.086334 127.500336,129.093384 
z"/>
<path fill="#0D95DE" opacity="1.000000" stroke="none" 
	d="
M278.138611,158.848907 
	C278.138611,150.765503 278.138611,143.162567 278.138611,135.257446 
	C280.127808,135.134506 281.722870,135.035919 283.676239,134.915192 
	C283.676239,145.012268 283.676239,154.893906 283.676239,165.192413 
	C282.134399,165.192413 280.443237,165.192413 278.138580,165.192413 
	C278.138580,163.193802 278.138580,161.261581 278.138611,158.848907 
z"/>
<path fill="#F6FBFE" opacity="1.000000" stroke="none" 
	d="
M224.877914,159.838516 
	C219.558243,161.495422 216.367264,159.682343 216.020142,155.218002 
	C215.727448,151.453476 218.181946,148.469345 221.683136,148.576019 
	C225.579498,148.694733 227.410416,151.029755 227.089157,154.730988 
	C226.944290,156.399994 225.862228,157.987656 224.877914,159.838516 
z"/>
<path fill="#FFFFFF" opacity="1.000000" stroke="none" 
	d="
M294.210815,150.794098 
	C294.587097,150.535309 294.938263,150.640320 295.289429,150.745331 
	C294.921539,150.882843 294.553619,151.020370 294.210815,150.794098 
z"/>
<path fill="#F6FBFE" opacity="1.000000" stroke="none" 
	d="
M195.262329,148.733856 
	C197.477203,149.499817 199.981049,149.888718 200.950546,151.318222 
	C203.037598,154.395554 202.435013,157.753113 199.232346,159.961899 
	C196.425400,161.897781 193.835861,160.965790 192.004776,158.264450 
	C189.816330,155.035934 190.982330,151.391251 195.262329,148.733856 
z"/>
<path fill="#E6F4FC" opacity="1.000000" stroke="none" 
	d="
M265.374634,160.284271 
	C263.846649,160.876389 262.432983,161.745941 261.387482,161.423111 
	C260.222351,161.063324 258.994934,159.756027 258.591949,158.586456 
	C258.404663,158.042801 259.967590,156.328018 260.975098,156.068695 
	C262.650665,155.637436 264.518005,155.951202 267.025024,155.951202 
	C266.432770,157.712204 266.042084,158.873932 265.374634,160.284271 
z"/>
</svg>